# xmcd
#
# Track frame offsets:
#	150
#	21090
#	29474
#	40263
#	55119
#	60352
#	88086
#	105283
#	125573
#	140756
#	157887
#	185700
#	203990
#	217894
#	305468
#	314357
#
# Disc length: 4475 seconds
#
# Revision: 1
# Processed by: cddbd v1.5.2PL0 Copyright (c) Steve Scherf et al.
# Submitted via: EZCDAudioConverter 1.3.4.1
#
DISCID=da117910
DTITLE=Isaac Hayes - Shaft (Ost)
DYEAR=1971
DGENRE=
TTITLE0=Theme From Shaft
TTITLE1=Bumpy's Lament
TTITLE2=Walk From Regio's
TTITLE3=Ellie's Love Theme
TTITLE4=Shaft's Cab Ride
TTITLE5=Café Regio's
TTITLE6=Early Sunday Morning
TTITLE7=Be Yourself
TTITLE8=A Friend's Place
TTITLE9=Soulsville
TTITLE10=No Name Bar
TTITLE11=Bumpy's Blues
TTITLE12=Shaft Strikes Again
TTITLE13=Do Your Thing
TTITLE14=The End Theme
TTITLE15=The From Shaft [2009 Mix]
EXTD=
EXTT0=
EXTT1=
EXTT2=
EXTT3=
EXTT4=
EXTT5=
EXTT6=
EXTT7=
EXTT8=
EXTT9=
EXTT10=
EXTT11=
EXTT12=
EXTT13=
EXTT14=
EXTT15=
PLAYORDER=
